<?xml version="1.0" encoding="UTF-8"?>
<svg version="1.1" viewBox="0 0 2000 2000" width="500" height="500" xmlns="http://www.w3.org/2000/svg">
<path transform="translate(1179,502)" d="m0 0h22l22 2 24 4 23 6 21 8 16 8 13 7 18 12 14 11 10 9 19 19 13 17 10 15 9 16 9 19 7 20 4 14 6 28 2 16v32l-3 29-5 25-6 22-9 22-9 19-10 17-10 14-9 12-9 10-24 24-14 11-15 10-10 6-19 10-19 8-32 10-19 4-7 1 10 14 14 19 16 21 11 14 10 12 9 11 10 11 9 11 15 16 9 10 7 7 7 8 39 39 2 1v2l4 2 13 13 8 7 14 13 8 7 14 12 15 13 13 11 10 8 16 13 13 10 18 14 19 14 18 13 20 14 16 11 32 21 19 12 17 10 25 15 24 13 22 12 36 18 39 18 20 8 31 12 36 12 31 9 41 9 25 4 3 1v36l-343-1-1029-2-628-2v-81l24-6 21-7 30-13 26-13 23-13 22-13 14-9 20-13 21-14 23-16 16-11 18-13 13-10 21-16 13-10 18-14 15-12 11-9 32-26 15-13 11-9 15-13 14-12 11-10 8-7 20-18 8-7 15-14 12-11 16-15 8-8 8-7 66-66 7-8 13-13 7-8 14-15 7-8 14-15 9-11 12-13 9-11 11-13 11-14 13-16 15-20 11-15 9-13 13-22 7-8 2-1h11l12 6 18 10 21 8 21 5h9l11-4 15-9 16-8 11-4-5-19-5-25-2-28v-11l3-32 5-25 7-24 8-20 11-23 11-18 14-19 13-15 17-17 11-9 14-11 14-9 16-9 21-10 25-9 28-7 21-3z" fill="#3C4255"/>
<path transform="translate(1179,502)" d="m0 0h22l22 2 24 4 23 6 21 8 16 8 13 7 18 12 14 11 10 9 19 19 13 17 10 15 9 16 9 19 7 20 4 14 6 28 2 16v32l-3 29-5 25-6 22-9 22-9 19-10 17-10 14-9 12-9 10-24 24-14 11-15 10-10 6-19 10-19 8-32 10-19 4h-9v-3l-1-3h-2l-8-12-10-16-12-20-12-22-8-15-10-22-11-27-10-24-4-7-2-1h-7l-23 7-13 2-22 1-30-2-56-8h-30l-3-3-7-30-2-11-2-28v-11l3-32 5-25 7-24 8-20 11-23 11-18 14-19 13-15 17-17 11-9 14-11 14-9 16-9 21-10 25-9 28-7 21-3z" fill="#982B27"/>
<path transform="translate(955,871)" d="m0 0h13l24 4 21 4 33 3h36l19-3h6l11 29 13 28 10 20 14 24 9 16 17 26 11 16 7 11-4 17-7 25-6 35-7 45-12 71-3 19-1 3-4-1-7-10-15-27-12-23-16-27-14-26-14-28-10-19-14-26-12-21-7-6-6-2-10 1-8 5-10 15-15 26-16 29-13 22-9 16h-2l-11-17-12-21-12-23-14-24-13-21-4-5-4-2h-10l-6 3h-2l-6 15-4 16-7 42-2 3-3-4-13-37-10-25-4-6-8-4h-7l-10 4-6 5-10 18-12 26-12 30-3-1-8-24-9-39-7-39-3-19-2-13-1-5 9-10 8-10 10-12 11-14 20-26 12-17 13-18 11-16 5 2 16 8 15 6 19 6 11 2h19l12-3 15-8 14-8 11-4z" fill="#FDFDFD"/>
<path transform="translate(1181,576)" d="m0 0 6 1v160l1 12 4 3v2l88 1h22l3 2v6l-2 1h-108l-3 7-6 5-9-1-6-4-3-5v-10l5-6 3-2h3v-170z" fill="#FDFDFD"/>
</svg>
